<?xml version="1.0" standalone="no"?>
<!DOCTYPE svg PUBLIC "-//W3C//DTD SVG 20010904//EN"
 "http://www.w3.org/TR/2001/REC-SVG-20010904/DTD/svg10.dtd">
<svg version="1.0" xmlns="http://www.w3.org/2000/svg"
 width="700.000000pt" height="700.000000pt" viewBox="0 0 700.000000 700.000000"
 preserveAspectRatio="xMidYMid meet">
<metadata>
Created by potrace 1.14, written by Peter Selinger 2001-2017
</metadata>
<g transform="translate(0.000000,700.000000) scale(0.100000,-0.100000)"
fill="#000000" stroke="none">
<path d="M2190 6953 c-1 -75 -1 -1833 -1 -1880 l1 -43 1310 0 1310 0 1 35 c0
19 0 451 0 960 0 509 0 936 0 950 l-1 25 -1310 0 -1310 0 0 -47z"/>
<path d="M0 1969 l0 -1969 3500 0 3500 0 -2 1968 -3 1967 -1092 1 -1091 1 1
-984 2 -983 -1312 0 c-1044 0 -1313 3 -1314 13 0 6 -1 449 -2 982 l-2 970
-1092 1 -1093 1 0 -1968z"/>
</g>
</svg>
